<svg xmlns="http://www.w3.org/2000/svg" version="1.1" xmlns:xlink="http://www.w3.org/1999/xlink" width="512" height="512" x="0" y="0" viewBox="0 0 24 24" xml:space="preserve">
    <g>
        <path d="M22 3.5C22 1.57 20.43 0 18.5 0h-13C3.57 0 2 1.57 2 3.5V20h4.255A6.968 6.968 0 0 0 5 24h14a6.968 6.968 0 0 0-1.255-4H22V3.5ZM19 17H5V3.5a.5.5 0 0 1 .5-.5h13a.5.5 0 0 1 .5.5V17ZM12 5c-2.757 0-5 2.243-5 5s2.243 5 5 5 5-2.243 5-5-2.243-5-5-5Zm0 7c-1.103 0-2-.897-2-2s.897-2 2-2 2 .897 2 2-.897 2-2 2Z" fill="#9aa0a6"/>
    </g>
</svg>